<?xml version="1.0" standalone="no"?>
<!DOCTYPE svg PUBLIC "-//W3C//DTD SVG 20010904//EN"
 "http://www.w3.org/TR/2001/REC-SVG-20010904/DTD/svg10.dtd">
<svg version="1.0" xmlns="http://www.w3.org/2000/svg"
 width="555.000000pt" height="190.000000pt" viewBox="0 0 555.000000 190.000000"
 preserveAspectRatio="xMidYMid meet">
<metadata>
Created by potrace 1.16, written by Peter Selinger 2001-2019
</metadata>
<g transform="translate(0.000000,190.000000) scale(0.100000,-0.100000)"
fill="#000000" stroke="none">
<path d="M169 1595 c-39 -21 -59 -59 -59 -111 0 -39 5 -51 35 -81 35 -35 37
-36 99 -30 l63 6 58 -59 57 -58 -46 -65 c-96 -134 -131 -254 -123 -422 7 -154
52 -274 149 -398 l22 -27 -73 -74 c-51 -51 -72 -79 -68 -90 11 -28 30 -18 104
56 l72 72 43 -32 c66 -51 196 -110 273 -127 187 -39 387 5 537 120 26 19 50
35 55 35 4 0 40 -32 79 -71 50 -49 77 -70 88 -66 27 11 18 27 -58 106 l-74 76
30 35 c89 105 139 246 143 405 3 102 4 110 23 113 12 2 34 -9 53 -26 46 -41
45 -93 -5 -194 -48 -98 -59 -185 -27 -235 24 -39 65 -67 86 -59 24 9 18 30
-15 49 -55 33 -54 121 3 236 26 51 37 88 37 118 0 91 -50 153 -125 153 l-41 0
-18 58 c-21 68 -66 152 -112 208 l-33 41 62 60 62 61 56 -5 c54 -5 59 -4 95
30 35 32 39 40 39 86 0 43 -4 55 -31 82 -89 89 -240 4 -204 -114 l12 -40 -58
-58 c-32 -33 -62 -59 -67 -59 -5 0 -26 13 -46 29 -55 44 -139 87 -216 113 -59
19 -91 23 -195 23 -111 0 -134 -4 -205 -28 -76 -27 -157 -71 -218 -119 l-27
-22 -65 64 c-52 51 -62 67 -54 81 13 26 11 76 -6 108 -27 52 -111 76 -166 46z
m115 -55 c11 -11 19 -32 19 -49 0 -83 -112 -106 -144 -29 -10 26 -10 35 2 57
29 51 82 60 123 21z m1371 -3 c48 -68 -22 -150 -95 -112 -54 28 -53 106 1 129
39 16 75 10 94 -17z m-768 -124 c-3 -7 -227 -373 -232 -380 -1 -3 -319 -63
-329 -63 -14 0 -3 33 36 111 74 150 223 274 383 320 61 18 149 25 142 12z
m251 -33 c87 -35 195 -110 242 -170 18 -22 30 -40 28 -41 -24 -7 -684 -126
-686 -124 -2 2 48 87 110 189 l113 187 58 -5 c31 -3 92 -20 135 -36z m340
-327 c16 -38 35 -92 41 -121 13 -60 14 -211 3 -229 -7 -11 -1074 -213 -1123
-213 -22 0 -59 67 -85 155 -16 56 -26 256 -13 269 7 7 1077 204 1115 205 29 1
33 -4 62 -66z m26 -435 c-14 -47 -67 -145 -105 -196 -75 -99 -204 -182 -335
-216 -84 -22 -128 -21 -120 1 6 14 225 372 229 373 27 8 299 58 315 59 20 1
22 -2 16 -21z m-406 -61 c-2 -7 -52 -92 -112 -190 -123 -199 -111 -190 -221
-162 -102 26 -199 80 -275 153 -39 37 -70 72 -70 77 0 7 545 115 673 134 5 0
7 -5 5 -12z"/>
<path d="M1870 1100 l0 -50 80 0 80 0 0 -225 0 -225 65 0 65 0 0 225 0 225 80
0 80 0 0 50 0 50 -225 0 -225 0 0 -50z"/>
<path d="M2380 875 l0 -275 65 0 65 0 0 115 0 115 100 0 100 0 0 -115 0 -115
65 0 65 0 0 275 0 275 -65 0 -65 0 0 -110 0 -110 -100 0 -100 0 0 110 0 110
-65 0 -65 0 0 -275z"/>
<path d="M2920 876 l0 -276 65 0 64 0 3 98 3 97 35 3 35 3 50 -101 49 -100 68
0 c37 0 68 2 68 5 0 3 -25 54 -55 114 l-54 109 25 17 c63 41 86 154 44 222
-37 61 -86 77 -252 81 l-148 4 0 -276z m253 165 c32 -12 50 -62 36 -99 -14
-37 -25 -42 -96 -42 l-63 0 0 75 0 75 49 0 c27 0 61 -4 74 -9z"/>
<path d="M3430 875 l0 -275 185 0 185 0 0 50 0 50 -120 0 -120 0 0 65 0 65
100 0 100 0 0 50 0 50 -100 0 -100 0 0 60 0 60 120 0 120 0 0 50 0 50 -185 0
-185 0 0 -275z"/>
<path d="M4009 1123 c-27 -70 -189 -515 -189 -519 0 -3 30 -4 67 -2 l67 3 15
48 15 48 95 -3 95 -3 15 -47 15 -48 68 0 68 0 -34 93 c-19 50 -64 174 -101
275 l-68 182 -59 0 c-55 0 -59 -2 -69 -27z"/>
<path d="M4380 875 l0 -275 103 0 c135 0 195 18 252 74 57 58 79 124 73 222
-6 91 -37 156 -96 200 -51 40 -115 54 -237 54 l-95 0 0 -275z m255 145 c30
-28 45 -77 45 -145 0 -113 -36 -165 -120 -173 l-50 -5 0 178 0 178 50 -5 c34
-4 59 -13 75 -28z"/>
<path d="M4985 1135 c-50 -18 -92 -63 -101 -109 -5 -27 0 -48 17 -83 21 -42
33 -52 94 -81 170 -81 160 -75 163 -109 8 -82 -148 -83 -160 0 -3 20 -10 22
-65 25 -62 3 -63 2 -63 -23 0 -57 56 -119 129 -144 54 -18 160 -13 208 9 106
48 112 196 10 259 -18 11 -63 31 -102 46 -101 38 -128 71 -89 109 38 38 119
26 130 -20 6 -22 11 -24 70 -24 61 0 64 1 64 24 0 37 -41 89 -90 114 -52 26
-151 29 -215 7z"/>
</g>
</svg>
